<svg xmlns="http://www.w3.org/2000/svg" width="150" height="47" viewBox="0 0 150 47" fill="none"><path d="M57.8461 35.0412V25.0607H55.7961C55.5141 25.0607 55.2852 24.8318 55.2852 24.5498V21.1365C55.2852 20.8545 55.5141 20.6256 55.7961 20.6256H57.8461V15.649C57.8461 15.367 58.075 15.1381 58.357 15.1381H61.9555C62.2375 15.1381 62.4664 15.367 62.4664 15.649V20.6256H66.2063C66.4883 20.6256 66.7172 20.8545 66.7172 21.1365V24.5498C66.7172 24.8318 66.4883 25.0607 66.2063 25.0607H62.4664V34.117C62.4664 34.8318 63.0453 35.4107 63.7602 35.4107H66.2063C66.4883 35.4107 66.7172 35.6396 66.7172 35.9217V38.9654C66.7172 39.2474 66.4883 39.4763 66.2063 39.4763H62.6516C61.0992 39.4763 59.9094 39.0881 59.0844 38.3123C58.2586 37.5365 57.8461 36.4451 57.8461 35.0412Z" fill="#1A6EE8"></path><path d="M92.0096 38.9664V21.1367C92.0096 20.8547 92.2385 20.6258 92.5205 20.6258H96.2604L96.6299 22.4742H96.8143C97.1104 22.1047 97.5291 21.7351 98.0713 21.3656C99.2041 20.6258 100.511 20.2562 101.989 20.2562C104.133 20.2562 105.901 20.9898 107.294 22.4554C108.686 23.9219 109.382 25.8383 109.382 28.2039V38.9672C109.382 39.2492 109.153 39.4781 108.871 39.4781H105.273C104.991 39.4781 104.762 39.2492 104.762 38.9672V28.5734C104.762 27.3664 104.386 26.3867 103.635 25.6344C102.883 24.8828 101.903 24.507 100.696 24.507C99.4877 24.507 98.508 24.8836 97.7565 25.6344C97.0041 26.3859 96.6291 27.3656 96.6291 28.5734V38.9672C96.6291 39.2492 96.4002 39.4781 96.1182 39.4781H92.5197C92.2377 39.4781 92.0088 39.2492 92.0088 38.9672L92.0096 38.9664Z" fill="#1A6EE8"></path><path d="M112.872 31.899V21.1357C112.872 20.8537 113.101 20.6248 113.383 20.6248H116.981C117.263 20.6248 117.492 20.8537 117.492 21.1357V31.5294C117.492 32.7373 117.868 33.7162 118.62 34.4677C119.371 35.2201 120.351 35.5951 121.559 35.5951C122.767 35.5951 123.746 35.2193 124.498 34.4677C125.249 33.7162 125.625 32.7373 125.625 31.5294V21.1357C125.625 20.8537 125.854 20.6248 126.136 20.6248H129.735C130.017 20.6248 130.246 20.8537 130.246 21.1357V38.9654C130.246 39.2474 130.017 39.4763 129.735 39.4763H126.414C126.171 39.4763 125.96 39.3044 125.913 39.0654L125.625 37.6279H125.441C125.145 37.9974 124.726 38.3669 124.184 38.7373C123.05 39.4763 121.744 39.8466 120.266 39.8466C118.122 39.8466 116.353 39.1138 114.961 37.6474C113.569 36.181 112.873 34.2646 112.873 31.899H112.872Z" fill="#1A6EE8"></path><path d="M134.294 33.7473H137.728C137.954 33.7473 138.162 33.8942 138.217 34.1145C138.328 34.5497 138.639 34.9692 139.15 35.3739C139.803 35.8911 140.709 36.1505 141.867 36.1505C144.208 36.1505 145.379 35.4731 145.379 34.1177C145.379 33.5262 145.195 33.0637 144.824 32.7317C144.455 32.3989 143.777 32.1583 142.792 32.0114L139.835 31.5309C136 31.0001 133.735 29.0794 133.735 26.1708C133.735 24.52 134.438 23.1216 135.842 21.9755C137.247 20.8294 139.193 20.2567 141.683 20.2567C144.173 20.2567 146.119 20.9348 147.524 22.2895C148.727 23.4505 149.414 24.6106 149.587 25.7716C149.633 26.0794 149.391 26.3559 149.079 26.3559H145.645C145.406 26.3559 145.203 26.1895 145.148 25.9575C145.038 25.4989 144.733 25.077 144.234 24.6926C143.593 24.2005 142.742 23.9536 141.683 23.9536C140.624 23.9536 139.803 24.1692 139.225 24.6005C138.646 25.0317 138.356 25.5552 138.356 26.1716C138.356 27.0841 139.219 27.663 140.944 27.9091L144.086 28.3895C148.028 28.9809 150 30.8911 150 34.1192C150 35.7708 149.303 37.1388 147.912 38.2223C146.52 39.3067 144.505 39.8489 141.868 39.8489C140.538 39.8489 139.36 39.6762 138.338 39.3309C137.315 38.9864 136.527 38.5731 135.972 38.0927C135.417 37.6122 134.961 37.0637 134.604 36.4473C134.246 35.8317 134.013 35.3083 133.902 34.8762C133.853 34.688 133.816 34.5106 133.788 34.3434C133.738 34.0317 133.978 33.7489 134.294 33.7489V33.7473Z" fill="#1A6EE8"></path><path d="M88.0088 20.6249H84.4103C84.1282 20.6249 83.8994 20.8536 83.8994 21.1358V38.9663C83.8994 39.2485 84.1282 39.4772 84.4103 39.4772H88.0088C88.291 39.4772 88.5197 39.2485 88.5197 38.9663V21.1358C88.5197 20.8536 88.291 20.6249 88.0088 20.6249Z" fill="#1A6EE8"></path><path d="M88.4484 14.6655L86.4648 13.5202C86.307 13.4288 86.1117 13.4288 85.9539 13.5202L83.9703 14.6655C83.8125 14.7569 83.7148 14.9257 83.7148 15.1085V17.3046C83.7148 17.5866 83.9437 17.8155 84.2258 17.8155H88.1937C88.4758 17.8155 88.7047 17.5866 88.7047 17.3046V15.1085C88.7047 14.9257 88.607 14.7569 88.4492 14.6655H88.4484Z" fill="#1A6EE8"></path><path d="M70.207 38.9664V21.1367C70.207 20.8546 70.4359 20.6257 70.718 20.6257H74.0883L74.4578 22.289H74.643C74.8648 21.9929 75.1359 21.7226 75.4563 21.4757C76.2195 20.9093 77.0578 20.6257 77.9695 20.6257H81.1547C81.4367 20.6257 81.6656 20.8546 81.6656 21.1367V24.55C81.6656 24.832 81.4367 25.0609 81.1547 25.0609H78.3391C76.3695 25.0609 74.8273 25.9062 74.8273 28.5726V38.9664C74.8273 39.2484 74.5984 39.4773 74.3164 39.4773H70.718C70.4359 39.4773 70.207 39.2484 70.207 38.9664Z" fill="#1A6EE8"></path><path d="M28.9959 26.1419L28.492 22.3075L4.46621 1.71997L0.358398 0.563721L4.20449 7.42153L25.4084 26.1419H28.9959Z" fill="#1A3EB5"></path><path d="M23.2564 46.1996L22.4854 42.2418L25.9088 23.384L44.0307 15.5176L46.1924 15.7512L34.3393 25.9199L23.2564 46.1996Z" fill="#1A6EE8"></path><path d="M28.9959 26.1419L46.1928 15.7512C46.1279 15.1864 45.792 14.6622 45.1912 14.463L2.02324 0.0817054C1.36074 -0.138607 0.734961 0.108268 0.358398 0.562956L28.9967 26.1411L28.9959 26.1419Z" fill="#0FE4F5"></path><path d="M0.358619 0.563721C-0.00231881 0.999658 -0.133569 1.62544 0.16565 2.22388L21.75 45.3669C22.0516 45.9684 22.6649 46.2505 23.2571 46.1997L28.9961 26.1419L0.358619 0.563721Z" fill="#1A3EB5"></path><path d="M46.1928 15.7511L28.9959 26.1418L23.2568 46.1996C23.6678 46.1644 24.0693 45.9746 24.3498 45.6004L45.9342 16.8371C46.1826 16.5051 46.235 16.1207 46.1928 15.7504V15.7511Z" fill="#1A6EE8"></path></svg>